<svg width="1462" height="200" xmlns="http://www.w3.org/2000/svg"><g fill="none" fill-rule="evenodd"><path d="M130.743 59.851 149.554 10h11.288l18.811 49.851h5.644V198.12h-60.198V59.85h5.644Z" fill="#00F"/><path d="M70.545 59.851 89.356 10h11.288l18.811 49.851h5.644V198.12H64.901V59.85h5.644Z" fill="#0F0"/><path d="M10.347 59.851 29.158 10h11.288l18.811 49.851h5.644V198.12H4.703V59.85h5.644Z" fill="red"/><path fill="#FCDD33" d="M0 78.663h190v121.05H0z"/><path d="M326 113.745c-7.39-5.01-14.86-7.516-22.408-7.516-4.088 0-7.902.705-11.44 2.114-3.538 1.41-6.643 3.406-9.317 5.99-2.673 2.583-4.756 5.636-6.25 9.159-1.494 3.523-2.241 7.476-2.241 11.86 0 4.228.747 8.103 2.24 11.626 1.495 3.523 3.539 6.576 6.133 9.16 2.595 2.583 5.7 4.58 9.317 5.989 3.617 1.409 7.47 2.113 11.558 2.113 8.02 0 15.489-2.74 22.408-8.22v36.169c-10.536 4.54-20.52 6.811-29.956 6.811-8.806 0-17.18-1.487-25.12-4.462-7.941-2.975-14.939-7.242-20.993-12.8-6.054-5.559-10.89-12.213-14.506-19.964-3.617-7.75-5.425-16.4-5.425-25.952 0-9.551 1.73-18.28 5.19-26.187 3.459-7.907 8.176-14.718 14.152-20.433 5.975-5.715 13.09-10.178 21.346-13.387 8.256-3.21 17.1-4.815 26.536-4.815 10.378 0 19.97 2.192 28.776 6.576v36.169Zm71 21.404c0 4.057.744 7.762 2.233 11.117 1.489 3.355 3.447 6.28 5.876 8.777 2.429 2.496 5.328 4.446 8.697 5.85 3.369 1.405 6.933 2.107 10.694 2.107 3.76 0 7.325-.702 10.694-2.106 3.37-1.405 6.268-3.355 8.697-5.851 2.429-2.497 4.387-5.422 5.876-8.777 1.489-3.355 2.233-6.982 2.233-10.883 0-3.745-.744-7.294-2.233-10.649-1.489-3.355-3.447-6.28-5.876-8.777-2.429-2.496-5.328-4.446-8.697-5.85-3.369-1.405-6.933-2.107-10.694-2.107-3.76 0-7.325.702-10.694 2.106-3.37 1.405-6.268 3.355-8.697 5.851-2.429 2.497-4.387 5.383-5.876 8.66-1.489 3.277-2.233 6.787-2.233 10.532Zm-46-.703c0-8.896 1.817-17.207 5.451-24.933 3.635-7.726 8.69-14.438 15.17-20.135 6.478-5.697 14.18-10.184 23.108-13.461C403.656 72.639 413.413 71 424 71c10.429 0 20.107 1.6 29.034 4.8 8.928 3.2 16.67 7.647 23.227 13.344 6.558 5.697 11.653 12.487 15.288 20.369 3.634 7.882 5.451 16.583 5.451 26.104s-1.857 18.222-5.57 26.104c-3.713 7.882-8.809 14.672-15.287 20.369-6.479 5.697-14.26 10.106-23.346 13.228-9.085 3.121-18.921 4.682-29.508 4.682-10.429 0-20.067-1.56-28.916-4.682-8.848-3.122-16.472-7.57-22.871-13.345-6.4-5.775-11.416-12.682-15.05-20.72-3.635-8.038-5.452-16.973-5.452-26.807ZM568 0v196h-42V0h42Zm75 135.149c0 4.057.744 7.762 2.233 11.117 1.489 3.355 3.447 6.28 5.876 8.777 2.429 2.496 5.328 4.446 8.697 5.85 3.369 1.405 6.933 2.107 10.694 2.107 3.76 0 7.325-.702 10.694-2.106 3.37-1.405 6.268-3.355 8.697-5.851 2.429-2.497 4.387-5.422 5.876-8.777 1.489-3.355 2.233-6.982 2.233-10.883 0-3.745-.744-7.294-2.233-10.649-1.489-3.355-3.447-6.28-5.876-8.777-2.429-2.496-5.328-4.446-8.697-5.85-3.369-1.405-6.933-2.107-10.694-2.107-3.76 0-7.325.702-10.694 2.106-3.37 1.405-6.268 3.355-8.697 5.851-2.429 2.497-4.387 5.383-5.876 8.66-1.489 3.277-2.233 6.787-2.233 10.532Zm-45-.703c0-8.896 1.817-17.207 5.451-24.933 3.635-7.726 8.69-14.438 15.17-20.135 6.478-5.697 14.18-10.184 23.108-13.461C650.656 72.639 660.413 71 671 71c10.429 0 20.107 1.6 29.034 4.8 8.928 3.2 16.67 7.647 23.227 13.344 6.558 5.697 11.653 12.487 15.288 20.369 3.634 7.882 5.451 16.583 5.451 26.104s-1.857 18.222-5.57 26.104c-3.713 7.882-8.809 14.672-15.287 20.369-6.479 5.697-14.26 10.106-23.346 13.228-9.085 3.121-18.921 4.682-29.508 4.682-10.429 0-20.067-1.56-28.916-4.682-8.848-3.122-16.472-7.57-22.871-13.345-6.4-5.775-11.416-12.682-15.05-20.72-3.635-8.038-5.452-16.973-5.452-26.807Zm176-59.843h42.312v19.878c4.52-7.257 10.052-12.818 16.597-16.683C839.455 73.933 847.091 72 855.82 72h3.623c1.324 0 2.844.158 4.558.473v40.94c-5.61-2.84-11.688-4.26-18.234-4.26-9.818 0-17.182 2.958-22.09 8.874-4.91 5.916-7.364 14.553-7.364 25.912V196H774V74.603ZM882 114h67v36h-67v-36Zm184 21.348c0-3.709-.708-7.224-2.124-10.545-1.417-3.322-3.384-6.22-5.902-8.691-2.518-2.473-5.429-4.442-8.734-5.91-3.304-1.468-6.924-2.202-10.858-2.202-3.777 0-7.318.695-10.622 2.086-3.305 1.39-6.177 3.322-8.616 5.794-2.44 2.472-4.407 5.369-5.902 8.69-1.495 3.323-2.242 6.838-2.242 10.546 0 3.708.708 7.184 2.124 10.43 1.417 3.244 3.384 6.063 5.902 8.458 2.518 2.395 5.468 4.326 8.852 5.794 3.383 1.468 6.963 2.202 10.74 2.202s7.318-.695 10.622-2.086c3.305-1.39 6.177-3.322 8.616-5.794 2.44-2.472 4.407-5.33 5.902-8.575a24.092 24.092 0 0 0 2.242-10.197ZM1012.677 0v86.563c10.06-10.507 22.636-15.76 37.726-15.76 8.96 0 17.173 1.685 24.64 5.057 7.466 3.371 13.832 7.92 19.098 13.643 5.266 5.724 9.392 12.467 12.38 20.23 2.986 7.762 4.479 16.034 4.479 24.815 0 8.939-1.533 17.329-4.598 25.17-3.065 7.84-7.348 14.662-12.85 20.464-5.502 5.802-11.986 10.39-19.452 13.76-7.467 3.372-15.523 5.058-24.169 5.058-15.719 0-28.137-5.724-37.254-17.171v13.407H970V0h42.677ZM1181 135.149c0 4.057.744 7.762 2.233 11.117 1.489 3.355 3.447 6.28 5.876 8.777 2.429 2.496 5.328 4.446 8.697 5.85 3.369 1.405 6.933 2.107 10.694 2.107 3.76 0 7.325-.702 10.694-2.106 3.37-1.405 6.268-3.355 8.697-5.851 2.429-2.497 4.387-5.422 5.876-8.777 1.489-3.355 2.233-6.982 2.233-10.883 0-3.745-.744-7.294-2.233-10.649-1.489-3.355-3.447-6.28-5.876-8.777-2.429-2.496-5.328-4.446-8.697-5.85-3.369-1.405-6.933-2.107-10.694-2.107-3.76 0-7.325.702-10.694 2.106-3.37 1.405-6.268 3.355-8.697 5.851-2.429 2.497-4.387 5.383-5.876 8.66-1.489 3.277-2.233 6.787-2.233 10.532Zm-46-.703c0-8.896 1.817-17.207 5.451-24.933 3.635-7.726 8.69-14.438 15.17-20.135 6.478-5.697 14.18-10.184 23.108-13.461C1187.656 72.639 1197.413 71 1208 71c10.429 0 20.107 1.6 29.034 4.8 8.928 3.2 16.67 7.647 23.227 13.344 6.558 5.697 11.653 12.487 15.288 20.369 3.634 7.882 5.451 16.583 5.451 26.104s-1.857 18.222-5.57 26.104c-3.713 7.882-8.809 14.672-15.287 20.369-6.479 5.697-14.26 10.106-23.346 13.228-9.085 3.121-18.921 4.682-29.508 4.682-10.429 0-20.067-1.56-28.916-4.682-8.848-3.122-16.472-7.57-22.871-13.345-6.4-5.775-11.416-12.682-15.05-20.72-3.635-8.038-5.452-16.973-5.452-26.807Zm212.377-4.017L1298.321 75h55.66l20.755 25.002L1395.962 75h55.66l-50.235 55.429L1462 196h-56.604l-30.896-35.852L1343.368 196H1287l60.377-65.571Z" fill-opacity=".75" fill="#000" fill-rule="nonzero"/></g></svg>